<?xml version="1.0" encoding="UTF-8"?>
<svg width="19px" height="20px" viewBox="0 0 19 20" version="1.1" xmlns="http://www.w3.org/2000/svg" xmlns:xlink="http://www.w3.org/1999/xlink">
    <!-- Generator: Sketch 64 (93537) - https://sketch.com -->
    <title>ico_7</title>
    <desc>Created with Sketch.</desc>
    <g id="页面-1" stroke="none" stroke-width="1" fill="none" fill-rule="evenodd">
        <g id="资源1" transform="translate(-1457.000000, -145.000000)">
            <g id="tab" transform="translate(1443.000000, 66.000000)">
                <g id="ico_7" transform="translate(11.000000, 77.000000)">
                    <rect id="矩形备份-14" x="0" y="0" width="24" height="24"></rect>
                    <g transform="translate(3.000000, 2.000000)" fill="#0170FF" fill-rule="nonzero">
                        <path d="M8.5,0 C3.80557963,0 0,4.02943725 0,9 C0,13.9705627 3.80557963,18 8.5,18 C13.1944204,18 17,13.9705627 17,9 C17,6.61305159 16.1044669,4.32386638 14.5104076,2.63603897 C12.9163484,0.948211563 10.7543402,0 8.5,0 Z M8.5,16.92 C4.36891007,16.92 1.02,13.3740952 1.02,9 C1.02,4.62590478 4.36891007,1.08 8.5,1.08 C12.6310899,1.08 15.98,4.62590478 15.98,9 C15.98,13.3740952 12.6310899,16.92 8.5,16.92 Z" id="形状"></path>
                        <path d="M18.8611825,19.052422 L15.9042349,16.1511503 C15.7655008,16.0158662 15.5670261,15.966867 15.3835742,16.0226103 C15.2001224,16.0783536 15.0595641,16.2303706 15.0148464,16.4213979 C14.9701287,16.6124253 15.0280452,16.8134415 15.1667793,16.9487256 L18.1237269,19.8499973 C18.2196233,19.9446425 18.3469932,19.9982716 18.4799857,20 C18.6952688,19.9940438 18.886032,19.8559584 18.9638635,19.6497413 C19.041695,19.4435242 18.9913827,19.2094804 18.8362444,19.0560806 L18.8611825,19.052422 Z" id="路径"></path>
                        <path d="M9.22921688,9.4919886 L11.7441852,6.86609378 C11.8709766,6.73407252 11.9175674,6.54456851 11.8664074,6.36896607 C11.8152474,6.19336362 11.674109,6.05834094 11.4961576,6.01475976 C11.3182063,5.97117858 11.1304771,6.02565991 11.0036857,6.15768118 L8.50577957,8.76995267 L5.87478824,6.25985607 C5.74356422,6.12818521 5.55108279,6.07795988 5.37208104,6.12868168 C5.1930793,6.17940348 5.05575582,6.32308208 5.01343087,6.50392965 C4.97110592,6.68477721 5.03044704,6.87430438 5.16841314,6.99892115 L7.79940447,9.50901775 L5.2844361,12.1383184 C5.08947426,12.3424435 5.09711136,12.6656296 5.3014983,12.8603543 C5.39460855,12.9465177 5.51582719,12.9961211 5.64274231,13 C5.78197596,13.000707 5.91532809,12.9440189 6.01128585,12.8433252 L8.52625421,10.2140245 L11.160658,12.7241211 C11.2525127,12.8122273 11.3745146,12.8621511 11.501902,12.8637601 C11.7081119,12.8582155 11.8908353,12.7296704 11.9653865,12.5377008 C12.0399377,12.3457312 11.9917458,12.1278575 11.843146,11.985056 L9.22921688,9.4919886 Z" id="路径"></path>
                    </g>
                </g>
            </g>
        </g>
    </g>
</svg>