<?xml version="1.0" encoding="UTF-8"?>
<svg width="19px" height="18px" viewBox="0 0 19 18" version="1.1" xmlns="http://www.w3.org/2000/svg" xmlns:xlink="http://www.w3.org/1999/xlink">
    <!-- Generator: Sketch 64 (93537) - https://sketch.com -->
    <title>ico_3</title>
    <desc>Created with Sketch.</desc>
    <g id="页面-1" stroke="none" stroke-width="1" fill="none" fill-rule="evenodd">
        <g id="资源1" transform="translate(-1457.000000, -338.000000)">
            <g id="tab" transform="translate(1443.000000, 66.000000)">
                <g id="ico_3" transform="translate(11.000000, 269.000000)">
                    <rect id="矩形备份-18" x="0" y="0" width="24" height="24"></rect>
                    <g transform="translate(3.000000, 3.000000)" fill="#000000" fill-rule="nonzero">
                        <path d="M14,11.6166667 L14,1.39 C14,0.61 13.461,0 12.7715,0 L1.2215,0 C0.539,0 0,0.61 0,1.39 L0,11.6166667 C0,12.3966667 0.539,13 1.2285,13 L12.7785,13 C13.461,13 14,12.3966667 14,11.6166667 Z M1.2285,1 L12.7785,1 C12.824,1 12.957,1.14333333 12.957,1.39 L12.957,6.79666667 C12.376,5.79666667 11.536,4.76666667 10.5245,4.76666667 C9.1245,4.76666667 8.4245,6.38666667 7.812,7.81666667 C7.5775,8.35666667 7.0315,9.62 6.762,9.62 C6.2125,9.62 5.761,9.1 5.2815,8.55333333 C4.711,7.90333333 4.067,7.16666667 3.0765,7.16666667 C2.2155,7.16666667 1.533,7.78 1.05,8.43333333 L1.05,1.39 C1.05,1.14333333 1.1865,1 1.2285,1 Z M1.05,11.6166667 L1.05,10.4966667 C1.11840823,10.4422458 1.17136269,10.3723275 1.204,10.2933333 C1.47,9.6 2.282,8.16666667 3.0765,8.16666667 C3.5735,8.16666667 4.011,8.66666667 4.4765,9.19333333 C5.061,9.86 5.726,10.62 6.7655,10.62 L6.7655,10.62 C7.7315,10.62 8.218,9.49666667 8.7815,8.2 C9.2505,7.11666667 9.8315,5.76666667 10.5315,5.76666667 C11.2945,5.76666667 12.341,7.64333333 12.81,8.91 C12.8412122,8.99254248 12.8942545,9.06602095 12.964,9.12333333 L12.964,11.6166667 C12.964,11.8666667 12.831,12.01 12.7855,12.01 L1.2355,12.01 C1.1865,12 1.05,11.8666667 1.05,11.6166667 Z" id="形状"></path>
                        <path d="M8,13.3055614 L13.8581297,14.9484911 C14.5276159,15.1346318 15.2391038,14.8004104 15.4478824,14.2017049 L17.9413986,7.09424828 C18.0425905,6.80663145 18.0118579,6.49482958 17.8559671,6.22749045 C17.7000763,5.96015132 17.4318084,5.75919346 17.1102265,5.66886069 L14.7292271,5 L14.7292271,6.01952552 L16.783565,6.58773242 C16.8299365,6.60043207 16.8686971,6.62920647 16.8911995,6.66763642 C16.913702,6.70606638 16.9180742,6.75095453 16.9033409,6.7922869 L14.4098247,13.9029904 C14.3956667,13.9436373 14.3638882,13.9775122 14.3215968,13.9970387 C14.2793054,14.0165651 14.2300298,14.0201138 14.1847912,14.0068911 L11.6440906,13.2958207 L8,13.3055614 Z" id="路径"></path>
                        <path d="M18.163301,9 L18.163301,9 L17.8593382,9.96489162 C17.948502,9.99232931 17.9987191,10.0852036 17.9720435,10.1733351 L15.8340579,16.8737845 C15.8046812,16.9620134 15.7093002,17.0111949 15.6188932,16.9847303 L6.52391595,14.1774672 L4,14.1774672 C4.14909965,14.4014552 4.37234042,14.5677567 4.63183282,14.648146 L15.3115151,17.9462599 C15.9413549,18.1394593 16.6114066,17.7953903 16.8108373,17.1763638 L18.9454076,10.4759144 C19.1416711,9.85590771 18.7921452,9.19631705 18.163301,9 L18.163301,9 Z" id="路径"></path>
                        <circle id="椭圆形" cx="5" cy="4" r="1"></circle>
                    </g>
                </g>
            </g>
        </g>
    </g>
</svg>