<?xml version="1.0" encoding="UTF-8"?>
<svg width="17px" height="19px" viewBox="0 0 17 19" version="1.1" xmlns="http://www.w3.org/2000/svg" xmlns:xlink="http://www.w3.org/1999/xlink">
    <!-- Generator: Sketch 64 (93537) - https://sketch.com -->
    <title>ico_1</title>
    <desc>Created with Sketch.</desc>
    <g id="页面-1" stroke="none" stroke-width="1" fill="none" fill-rule="evenodd">
        <g id="资源1" transform="translate(-1458.000000, -86.000000)">
            <g id="tab" transform="translate(1443.000000, 66.000000)">
                <g id="ico_1" transform="translate(11.000000, 17.000000)">
                    <rect id="矩形备份-19" x="0" y="0" width="24" height="24"></rect>
                    <g transform="translate(4.000000, 3.000000)" fill="#0170FF" fill-rule="nonzero">
                        <path d="M5.92141249,15.9421282 L1.05434065,15.9421282 L1.05434065,1.05787182 L14.9457016,1.05787182 L14.9457016,8.46297449 C14.9457016,8.75509772 15.1817012,8.99191039 15.4728213,8.99191039 C15.7639415,8.99191039 16,8.75509772 16,8.46297449 L16,0.994399507 C16.0058044,0.452397146 15.573673,0.00773917329 15.0335549,0 L0.977029767,0 C0.715478279,0 0.464838495,0.105187531 0.281219382,0.292090416 C0.0976002695,0.4789933 -0.00366206423,0.731974001 0,0.994399507 L0,16.0056005 C-0.00576210805,16.5476029 0.42636933,16.9922608 0.966487373,17 L5.92141249,17 C6.21253265,17 6.44853215,16.7631873 6.44853215,16.4710641 C6.44853215,16.1789409 6.21253265,15.9421282 5.92141249,15.9421282 Z" id="路径"></path>
                        <path d="M12,3.5 C12,3.22385763 11.7611761,3 11.4665718,3 L2.53342817,3 C2.23882392,3 2,3.22385763 2,3.5 C2,3.77614237 2.23882392,4 2.53342817,4 L11.4665718,4 C11.7611761,4 12,3.77614237 12,3.5 L12,3.5 Z" id="路径"></path>
                        <path d="M8,13.5 C8,13.2238576 7.74269238,13 7.42528736,13 L2.57471264,13 C2.25730762,13 2,13.2238576 2,13.5 C2,13.7761424 2.25730762,14 2.57471264,14 L7.42528736,14 C7.74269238,14 8,13.7761424 8,13.5 Z" id="路径"></path>
                        <path d="M2.56390978,8 C2.25247101,8 2,8.22385763 2,8.5 C2,8.77614237 2.25247101,9 2.56390978,9 L9.43609025,9 C9.74752901,9 10,8.77614237 10,8.5 C10,8.22385763 9.74752901,8 9.43609025,8 L2.56390978,8 Z" id="路径"></path>
                        <path d="M16.8342608,11.1716832 C16.7879703,10.5462754 16.2719277,10.0575798 15.6408369,10.0415032 L13.3027003,10.0000142 L13.2783447,10.0000142 C12.9435969,9.99840537 12.6228526,10.1333457 12.3911053,10.3732992 L8.25761386,14.6797342 C8.08836238,14.856583 7.99588705,15.0924391 8.00014049,15.3364137 C8.00643771,15.5704846 8.10516875,15.7927024 8.27501071,15.9550749 L11.2289958,18.7546032 C11.3931279,18.912543 11.6128492,19.0005906 11.8413649,18.999997 L11.8865967,18.999997 C12.1234848,18.9899119 12.3470087,18.8881971 12.5094039,18.716585 L16.6498541,14.4066937 C16.8919136,14.1660058 17.0185763,13.8338424 16.9977911,13.4942549 L16.8342608,11.1716832 Z M15.8948309,13.6878025 L11.8448443,17.9043761 L9.10310076,15.3053078 L13.1530874,11.0887342 C13.1871241,11.054793 13.2336025,11.0360758 13.281824,11.0368655 L13.281824,11.0368655 L15.6164813,11.0783656 C15.7072836,11.0800082 15.7815364,11.1507561 15.7869704,11.2408073 L15.9400627,13.5599228 C15.9444642,13.60706 15.9279464,13.6537593 15.8948309,13.6878025 Z" id="形状"></path>
                        <path d="M13.4567735,12.0004332 C13.0608932,12.0088053 12.6850768,12.1763255 12.4141841,12.4651677 C11.842691,13.0647734 11.8654182,14.0141961 12.4649468,14.5857627 C13.0644754,15.1573293 14.0137761,15.1345991 14.5852692,14.5349934 L14.5852692,14.5349934 C15.0040844,14.0960754 15.1172048,13.4480141 14.8718587,12.8931357 C14.6265126,12.3382572 14.0710437,11.9858966 13.4645831,12.0004332 L13.4567735,12.0004332 Z M13.7301115,13.7265898 C13.6698787,13.789738 13.5869691,13.8262792 13.4997266,13.8281284 C13.4138764,13.8247808 13.3315265,13.7932093 13.2654368,13.7383058 C13.2022967,13.6780652 13.1657602,13.5951449 13.1639113,13.5078912 C13.1607282,13.4208174 13.1931585,13.3362057 13.2537224,13.2735713 C13.3139551,13.210423 13.3968648,13.1738819 13.4841073,13.1720314 L13.4841073,13.1720314 C13.6155554,13.1716594 13.7345307,13.2498068 13.7864135,13.3705987 C13.8382962,13.4913906 13.8130646,13.631494 13.7223019,13.7265898 L13.7301115,13.7265898 Z" id="形状"></path>
                    </g>
                </g>
            </g>
        </g>
    </g>
</svg>