<?xml version="1.0" encoding="UTF-8"?>
<svg width="17px" height="18px" viewBox="0 0 17 18" version="1.1" xmlns="http://www.w3.org/2000/svg" xmlns:xlink="http://www.w3.org/1999/xlink">
    <!-- Generator: Sketch 64 (93537) - https://sketch.com -->
    <title>ico_4</title>
    <desc>Created with Sketch.</desc>
    <g id="页面-1" stroke="none" stroke-width="1" fill="none" fill-rule="evenodd">
        <g id="资源1" transform="translate(-1458.000000, -294.000000)">
            <g id="tab" transform="translate(1443.000000, 66.000000)">
                <g id="ico_4" transform="translate(11.000000, 225.000000)">
                    <rect id="矩形备份-17" x="0" y="0" width="24" height="24"></rect>
                    <g transform="translate(4.000000, 3.000000)" fill="#000000" fill-rule="nonzero">
                        <path d="M16.5,13 C16.2238576,13 16,13.2310987 16,13.5161734 L16,17.4838266 C16,17.7689013 16.2238576,18 16.5,18 C16.7761424,18 17,17.7689013 17,17.4838266 L17,13.5161734 C17,13.2310987 16.7761424,13 16.5,13 Z" id="路径"></path>
                        <path d="M16.0000116,10.4965916 C15.9986338,10.6991236 16.1195757,10.8824805 16.3062967,10.9609427 C16.4930178,11.0394049 16.708629,10.9974713 16.8523319,10.8547458 C16.9960348,10.7120203 17.0394392,10.4967002 16.9622534,10.3094478 C16.8850676,10.1221953 16.7025407,10 16.5,10 C16.2251888,10 16.0018811,10.2217823 16.0000116,10.4965916 Z" id="路径"></path>
                        <path d="M16,8.96079652 L16,1.0528936 C16.0058044,0.479008743 15.573673,0.00819441878 15.0335549,0 L0.977029767,0 C0.715478279,0 0.464838495,0.111375033 0.281219382,0.309272205 C0.0976002695,0.507169377 -0.00366206423,0.775031295 0,1.0528936 L0,16.9471064 C-0.00576210805,17.5209913 0.42636933,17.9918056 0.966487373,18 L5.92141249,18 C6.21253265,18 6.44853215,17.7492572 6.44853215,17.4399502 C6.44853215,17.1306433 6.21253265,16.8799005 5.92141249,16.8799004 L1.05434065,16.8799004 L1.05434065,1.12009957 L14.9457016,1.12009957 L14.9457016,8.96079652 C14.9457016,9.27010347 15.1817012,9.5208463 15.4728213,9.5208463 C15.7639415,9.5208463 16,9.27010347 16,8.96079652 Z" id="路径"></path>
                        <path d="M13,3.5 C13,3.22385763 12.7611761,3 12.4665718,3 L3.53342817,3 C3.23882392,3 3,3.22385763 3,3.5 C3,3.77614237 3.23882392,4 3.53342817,4 L12.4665718,4 C12.7611761,4 13,3.77614237 13,3.5 L13,3.5 Z" id="路径"></path>
                        <path d="M7.42528736,13 L2.57471264,13 C2.25730762,13 2,13.2238576 2,13.5 C2,13.7761424 2.25730762,14 2.57471264,14 L7.42528736,14 C7.74269238,14 8,13.7761424 8,13.5 C8,13.2238576 7.74269238,13 7.42528736,13 Z" id="路径"></path>
                        <path d="M2.56390978,8 C2.25247101,8 2,8.22385763 2,8.5 C2,8.77614237 2.25247101,9 2.56390978,9 L9.43609025,9 C9.74752901,9 10,8.77614237 10,8.5 C10,8.22385763 9.74752901,8 9.43609025,8 L2.56390978,8 Z" id="路径"></path>
                        <path d="M12.4809775,11.3091048 L12.4809775,11.3091048 C12.4809775,11.3091048 12.4809775,11.291542 12.4809775,11.2810043 C12.4707234,11.2592055 12.4591065,11.2380875 12.4461973,11.2177784 C12.4368241,11.2040584 12.4263551,11.1911359 12.4148951,11.1791403 L12.3557686,11.1369896 L12.3105543,11.0983515 L12.2757741,11.0702511 L12.2027356,11.031613 L12.2027356,11.031613 L12.2027356,11.031613 C12.1715519,11.0174169 12.1388845,11.0068124 12.1053509,11 L12.0079662,11 C11.9389488,11.0002929 11.8705719,11.0133897 11.8062408,11.0386381 L11.8062408,11.0386381 L11.8062408,11.0386381 L11.7297243,11.0807887 L11.6949441,11.1088892 L11.6532078,11.1475273 C11.6396021,11.1607629 11.6268247,11.1748403 11.6149495,11.1896779 L11.5871253,11.2248035 C11.5734788,11.2458951 11.5618337,11.2682403 11.5523451,11.291542 C11.5516834,11.2997244 11.5516834,11.3079476 11.5523451,11.3161299 L11.5523451,11.3161299 L9.04121168,17.2488342 C8.96852084,17.4226399 8.99316444,17.6224081 9.10585949,17.7728881 C9.21855453,17.923368 9.40217996,18.0016982 9.58756584,17.9783725 C9.77295172,17.9550467 9.93193353,17.8336088 10.0046244,17.659803 L10.7210973,15.9351389 L13.270489,15.9351389 L13.99044,17.659803 C14.0581933,17.8403807 14.2183318,17.9690576 14.4077864,17.9951556 C14.597241,18.0212535 14.7856526,17.9405904 14.8988169,17.7849348 C15.0119812,17.6292791 15.0317642,17.4235738 14.9503746,17.2488342 L12.4809775,11.3091048 Z M11.1593284,14.8813726 L12.0079662,12.8686789 L12.842692,14.8813726 L11.1593284,14.8813726 Z" id="形状"></path>
                    </g>
                </g>
            </g>
        </g>
    </g>
</svg>