<?xml version="1.0" encoding="UTF-8"?>
<svg width="20px" height="20px" viewBox="0 0 20 20" version="1.1" xmlns="http://www.w3.org/2000/svg" xmlns:xlink="http://www.w3.org/1999/xlink">
    <!-- Generator: Sketch 64 (93537) - https://sketch.com -->
    <title>ico_6</title>
    <desc>Created with Sketch.</desc>
    <g id="页面-1" stroke="none" stroke-width="1" fill="none" fill-rule="evenodd">
        <g id="资源1" transform="translate(-1456.000000, -189.000000)">
            <g id="tab" transform="translate(1443.000000, 66.000000)">
                <g id="ico_6" transform="translate(11.000000, 121.000000)">
                    <rect id="矩形备份-15" x="0" y="0" width="24" height="24"></rect>
                    <g transform="translate(2.000000, 2.000000)" fill="#000000" fill-rule="nonzero">
                        <path d="M14.1248741,10.2379273 L13.4159114,10.2379273 L11.115475,4.07986345 C10.8787714,3.42921925 10.2273812,2.99434014 9.49815374,3.00005567 L9.49815374,3.00005567 C8.77028054,2.99584308 8.12079678,3.43044164 7.88452501,4.07986345 L5.58408862,10.2379273 L4.87512588,10.2379273 C4.64302807,10.2379273 4.42043637,10.324898 4.25631844,10.4797068 C4.0922005,10.6345157 4,10.8444815 4,11.0634143 L4,12.1710299 C4,12.6275007 4.39121052,12.9980821 4.87512588,13 L14.1248741,13 C14.6087895,12.9980821 15,12.6275007 15,12.1710299 L15,11.0634143 C15,10.6075104 14.6081928,10.2379273 14.1248741,10.2379273 L14.1248741,10.2379273 Z M13.8922457,11.9550797 L5.10775428,11.9550797 L5.10775428,11.2828476 L5.97549513,11.2828476 C6.2096476,11.2822268 6.41808944,11.142781 6.49613964,10.9345408 L8.92950655,4.42817023 C9.01541855,4.20055278 9.24385777,4.04853959 9.5,4.04853959 C9.75614223,4.04853959 9.98458145,4.20055278 10.0704935,4.42817023 L12.5038604,10.9345408 C12.5819106,11.142781 12.7903524,11.2822268 13.0245049,11.2828476 L13.8922457,11.2828476 L13.8922457,11.9550797 Z" id="形状"></path>
                        <path d="M9.5,5 C9.22385763,5 9,5.26460712 9,5.59101655 L9,9.40898345 C9,9.73539288 9.22385763,10 9.5,10 C9.77614237,10 10,9.73539288 10,9.40898345 L10,5.59101655 C10,5.26460712 9.77614237,5 9.5,5 Z" id="路径"></path>
                        <circle id="椭圆形" cx="9.5" cy="11.5" r="1"></circle>
                        <path d="M9,0 C4.02943725,0 0,4.02943725 0,9 C0,13.9705627 4.02943725,18 9,18 C13.9705627,18 18,13.9705627 18,9 C18,6.61305159 17.0517884,4.32386638 15.363961,2.63603897 C13.6761336,0.948211563 11.3869484,0 9,0 Z M9,16.92 C4.62590478,16.92 1.08,13.3740952 1.08,9 C1.08,4.62590478 4.62590478,1.08 9,1.08 C13.3740952,1.08 16.92,4.62590478 16.92,9 C16.92,13.3740952 13.3740952,16.92 9,16.92 Z" id="形状"></path>
                        <path d="M19.8611825,19.052422 L16.9042349,16.1511503 C16.7655008,16.0158662 16.5670261,15.966867 16.3835742,16.0226103 C16.2001224,16.0783536 16.0595641,16.2303706 16.0148464,16.4213979 C15.9701287,16.6124253 16.0280452,16.8134415 16.1667793,16.9487256 L19.1237269,19.8499973 C19.2196233,19.9446425 19.3469932,19.9982716 19.4799857,20 C19.6952688,19.9940438 19.886032,19.8559584 19.9638635,19.6497413 C20.041695,19.4435242 19.9913827,19.2094804 19.8362444,19.0560806 L19.8611825,19.052422 Z" id="路径"></path>
                    </g>
                </g>
            </g>
        </g>
    </g>
</svg>