<?xml version="1.0" encoding="UTF-8"?>
<svg width="20px" height="18px" viewBox="0 0 20 18" version="1.1" xmlns="http://www.w3.org/2000/svg" xmlns:xlink="http://www.w3.org/1999/xlink">
    <!-- Generator: Sketch 64 (93537) - https://sketch.com -->
    <title>ico_5</title>
    <desc>Created with Sketch.</desc>
    <g id="页面-1" stroke="none" stroke-width="1" fill="none" fill-rule="evenodd">
        <g id="资源1" transform="translate(-1456.000000, -250.000000)">
            <g id="tab" transform="translate(1443.000000, 66.000000)">
                <g id="ico_5" transform="translate(11.000000, 181.000000)">
                    <rect id="矩形备份-16" x="0" y="0" width="24" height="24"></rect>
                    <g transform="translate(2.000000, 3.000000)" fill="#000000" fill-rule="nonzero">
                        <path d="M13.8684261,16.8979592 L10.0471971,16.8979592 L10.0471971,13.1289796 L11.7931034,13.1289796 C11.67044,12.8926119 11.5664166,12.6469623 11.4819881,12.3942857 C11.4417261,12.2693878 11.4051243,12.1444898 11.3685224,12.0269388 L1.28106338,12.0269388 C1.17999027,12.0269388 1.09805432,11.9447054 1.09805432,11.8432653 L1.09805432,1.28571429 C1.09805432,1.18427423 1.17999027,1.10204082 1.28106338,1.10204082 L17.7189366,1.10204082 C17.8200097,1.10204082 17.9019457,1.18427423 17.9019457,1.28571429 L17.9019457,6.06122449 C18.143926,6.14388024 18.3789277,6.24583833 18.6047004,6.36612245 C18.7437873,6.44326531 18.8718937,6.5277551 19,6.61591837 L19,1.28571429 C19,0.575633893 18.4264484,0 17.7189366,0 L1.28106338,0 C0.573551611,0 0,0.575633893 0,1.28571429 L0,11.8432653 C0,12.5533457 0.573551611,13.1289796 1.28106338,13.1289796 L8.96744365,13.1289796 L8.96744365,16.8979592 L5.12425352,16.8979592 C4.82103419,16.8979592 4.57522635,17.1446594 4.57522635,17.4489796 C4.57522635,17.7532998 4.82103419,18 5.12425352,18 L13.8684261,18 C14.1716455,18 14.4174533,17.7532998 14.4174533,17.4489796 C14.4174533,17.1446594 14.1716455,16.8979592 13.8684261,16.8979592 Z" id="路径"></path>
                        <path d="M14.1154681,4.12352785 L9.83055512,7.41278064 L8.64583756,5.93386416 C8.46645994,5.71816668 8.14628202,5.67024756 7.90769579,5.82339089 L3.23156762,9.03067963 C3.03547756,9.16611314 2.95270708,9.40850875 3.02691971,9.62999657 C3.10113235,9.8514844 3.31526208,10.0011308 3.55635,10 C3.66043148,9.99515382 3.76120154,9.96313071 3.847916,9.90733855 L8.08484981,6.98514214 L9.2843302,8.49613151 C9.37435954,8.60927481 9.50698608,8.68355007 9.65340109,8.70282345 C9.80147126,8.72012925 9.95050919,8.6790129 10.0667605,8.58878651 L14.7908679,4.95385927 C14.9457991,4.83481778 15.0231893,4.64500954 14.9938863,4.45593348 C14.9645834,4.26685742 14.8330392,4.10723869 14.6488051,4.03720412 C14.4645709,3.96716955 14.2556365,3.99735905 14.1007053,4.11640054 L14.1154681,4.12352785 Z" id="路径"></path>
                        <path d="M16.0036084,7.00000158 C14.3851378,6.99856645 12.9252998,7.97259375 12.3052741,9.46759119 C11.6852483,10.9625886 12.0272404,12.6838955 13.1716724,13.8283276 C14.3161045,14.9727596 16.0374114,15.3147517 17.5324088,14.6947259 C19.0274062,14.0747002 20.0014336,12.6148622 20,10.9963916 C20,8.7892472 18.2107528,7.00000158 16.0036084,7.00000158 L16.0036084,7.00000158 Z M16.0036084,13.9306309 C14.8164981,13.9320659 13.745479,13.2180739 13.2901953,12.1217392 C12.8349117,11.0254044 13.0850749,9.76275448 13.9239808,8.9228318 C14.7628866,8.08290913 16.0252325,7.83121647 17.122118,8.2851717 C18.2190035,8.73912694 18.9342933,9.80928033 18.9342933,10.9963916 C18.9323411,12.6147306 17.621944,13.9267162 16.0036084,13.9306309 Z" id="形状"></path>
                        <path d="M17.7333333,9.80697465 L16.6507463,9.80697465 C16.6946324,9.75419272 16.7345489,9.69804734 16.7701493,9.63902561 L16.2089552,9.57348452 L18,9.57348452 L18,9 L14.3621891,9 L14.3621891,10.2903402 C14.4092404,11.0718866 14.2854768,11.8543487 14,12.5801819 C14.193145,12.6595526 14.3762366,12.762712 14.5452736,12.8874058 C14.9154229,12.1787428 14.9711443,11.0399664 14.9711443,10.2903402 L14.9711443,9.57348452 L16.0179104,9.57348452 C15.990007,9.65358002 15.9567603,9.7315958 15.918408,9.80697465 L15.1940299,9.80697465 L15.1940299,11.5929693 L16.1532338,11.5929693 L16.1532338,12.3712697 C16.1532338,12.4204255 16.1532338,12.4327145 16.0776119,12.4327145 L15.679602,12.4327145 C15.7573253,12.6117383 15.8121768,12.8003747 15.8427861,12.9939101 C16.0772191,13.0142406 16.3131844,12.9835347 16.5353234,12.9037911 C16.718408,12.8177684 16.7621891,12.6662046 16.7621891,12.3958476 L16.7621891,11.5929693 L17.7412935,11.5929693 L17.7333333,9.80697465 Z M17.0965174,11.1341817 L15.799005,11.1341817 L15.799005,10.9211731 L17.0965174,10.9211731 L17.0965174,11.1341817 Z M17.0965174,10.4869634 L15.799005,10.4869634 L15.799005,10.2780512 L17.0965174,10.2780512 L17.0965174,10.4869634 Z" id="形状"></path>
                        <path d="M17,11.2260274 C17.18,11.4657534 17.44,11.7979452 17.5566667,12 L18,11.739726 C17.8633333,11.5445205 17.59,11.2260274 17.4133333,11 L17,11.2260274 Z" id="路径"></path>
                        <path d="M15.5344262,11 C15.3923709,11.2638305 15.2119518,11.5015728 15,11.7042254 C15.1500261,11.7908315 15.2936199,11.8897153 15.4295082,12 C15.6442425,11.7434654 15.835301,11.465167 16,11.1690141 L15.5344262,11 Z" id="路径"></path>
                    </g>
                </g>
            </g>
        </g>
    </g>
</svg>