<?xml version="1.0" encoding="UTF-8"?>
<svg width="18px" height="18px" viewBox="0 0 18 18" version="1.1" xmlns="http://www.w3.org/2000/svg" xmlns:xlink="http://www.w3.org/1999/xlink">
    <!-- Generator: Sketch 64 (93537) - https://sketch.com -->
    <title>ico_2</title>
    <desc>Created with Sketch.</desc>
    <g id="页面-1" stroke="none" stroke-width="1" fill="none" fill-rule="evenodd">
        <g id="资源1" transform="translate(-1457.000000, -382.000000)">
            <g id="tab" transform="translate(1443.000000, 66.000000)">
                <g id="ico_2" transform="translate(11.000000, 313.000000)">
                    <rect id="矩形备份-19" x="0" y="0" width="24" height="24"></rect>
                    <g transform="translate(3.000000, 3.000000)" fill="#000000" fill-rule="nonzero">
                        <path d="M17.5804284,10.0993405 C17.4441518,10.0714022 17.3023975,10.0989498 17.1863649,10.1759202 C17.0703323,10.2528906 16.9895313,10.3729753 16.9617459,10.5097443 C16.1570028,14.4272195 12.6135241,17.1615303 8.6341047,16.9357344 C4.65468528,16.7099386 1.4409234,13.5922159 1.08134146,9.60867588 C0.721759525,5.6251359 3.32493444,1.9786211 7.19914499,1.03888636 C7.4809901,0.971082154 7.65469796,0.686828522 7.58713235,0.403988106 C7.51956674,0.12114769 7.23631339,-0.0531735978 6.95446828,0.0146306115 C2.57450346,1.07638289 -0.368848892,5.19853705 0.0373894922,9.70197404 C0.443627876,14.205411 4.076776,17.7301261 8.57553539,17.9852948 C13.0742948,18.2404636 17.0800733,15.1490269 17.9893881,10.7202079 C18.017228,10.58345 17.9897773,10.4411951 17.9130778,10.3247527 C17.8363783,10.2083104 17.7167162,10.127224 17.5804284,10.0993405 Z" id="路径"></path>
                        <path d="M8.54545455,10 L17.4545455,10 C17.7557917,10 18,9.75579168 18,9.45454545 C18,4.23294418 13.7670558,0 8.54545455,0 C8.24420832,0 8,0.244208318 8,0.545454545 L8,9.45454545 C8,9.75579168 8.24420832,10 8.54545455,10 Z M9.09090909,1.10909091 C13.2800088,1.38305398 16.616946,4.71999122 16.8909091,8.90909091 L9.09090909,8.90909091 L9.09090909,1.10909091 Z" id="形状"></path>
                    </g>
                </g>
            </g>
        </g>
    </g>
</svg>